<svg width="9.000000" height="15.000000" viewBox="0 0 9 15" fill="none" xmlns="http://www.w3.org/2000/svg" xmlns:xlink="http://www.w3.org/1999/xlink">
	<defs/>
	<path id="Path" d="M7.78 -0.79L5.78 -0.8C3.53 -0.8 2.08 0.7 2.08 3L2.08 4.76L0.07 4.76C-0.1 4.76 -0.24 4.9 -0.24 5.07L-0.24 7.61C-0.24 7.78 -0.1 7.92 0.07 7.92L2.08 7.92L2.08 14.33C2.08 14.51 2.22 14.65 2.4 14.65L5.02 14.65C5.19 14.65 5.33 14.5 5.33 14.33L5.33 7.92L7.68 7.92C7.86 7.92 8 7.78 8 7.61L8 5.07C8 4.99 7.97 4.91 7.91 4.85C7.85 4.79 7.77 4.76 7.68 4.76L5.33 4.76L5.33 3.27C5.33 2.56 5.5 2.19 6.43 2.19L7.78 2.19C7.95 2.19 8.09 2.05 8.09 1.88L8.09 -0.48C8.09 -0.65 7.95 -0.79 7.78 -0.79Z" fill="#666666" fill-opacity="1.000000" fill-rule="nonzero"/>
</svg>
