<svg width="20.000000" height="13.000000" viewBox="0 0 20 13" fill="none" xmlns="http://www.w3.org/2000/svg" xmlns:xlink="http://www.w3.org/1999/xlink">
	<defs/>
	<path id="Path" d="M-0.78 5.96C-0.9 2.76 1.85 -0.2 4.99 -0.24C6.59 -0.38 8.15 0.25 9.37 1.29C8.87 1.85 8.36 2.4 7.82 2.91C6.75 2.25 5.47 1.75 4.22 2.2C2.21 2.78 0.99 5.2 1.74 7.21C2.35 9.3 4.85 10.45 6.81 9.57C7.83 9.2 8.5 8.25 8.79 7.22C7.63 7.2 6.46 7.21 5.3 7.18C5.3 6.48 5.29 5.77 5.3 5.07C7.24 5.06 9.18 5.06 11.12 5.08C11.24 6.81 10.99 8.65 9.89 10.04C8.38 12.02 5.59 12.6 3.32 11.83C0.92 11.02 -0.83 8.55 -0.78 5.96Z" fill="#666666" fill-opacity="1.000000" fill-rule="nonzero"/>
	<path id="Path" d="M14.9 3.29C15.48 3.29 16.05 3.29 16.63 3.29C16.63 3.88 16.64 4.47 16.64 5.06C17.22 5.07 17.8 5.07 18.38 5.07C18.38 5.66 18.38 6.25 18.38 6.84C17.8 6.84 17.22 6.85 16.64 6.85C16.64 7.44 16.63 8.03 16.63 8.62C16.05 8.62 15.47 8.62 14.9 8.62C14.89 8.03 14.89 7.44 14.89 6.85C14.31 6.85 13.73 6.84 13.15 6.84C13.15 6.25 13.15 5.66 13.15 5.07C13.73 5.07 14.31 5.07 14.89 5.06C14.89 4.47 14.9 3.88 14.9 3.29Z" fill="#666666" fill-opacity="1.000000" fill-rule="nonzero"/>
</svg>
