<svg width="17.000000" height="17.000000" viewBox="0 0 17 17" fill="none" xmlns="http://www.w3.org/2000/svg" xmlns:xlink="http://www.w3.org/1999/xlink">
	<defs/>
	<path id="Shape" d="M4.8125 -0.5L11.1875 -0.5C14.121 -0.5 16.5 1.87891 16.5 4.8125L16.5 11.1875C16.5 14.1211 14.121 16.5 11.1875 16.5L4.8125 16.5C1.87897 16.5 -0.5 14.1211 -0.5 11.1875L-0.5 4.8125C-0.5 1.87891 1.87897 -0.5 4.8125 -0.5ZM11.1875 14.9062C13.2381 14.9062 14.9062 13.238 14.9062 11.1875L14.9062 4.8125C14.9062 2.76196 13.2381 1.09375 11.1875 1.09375L4.8125 1.09375C2.7619 1.09375 1.09375 2.76196 1.09375 4.8125L1.09375 11.1875C1.09375 13.238 2.7619 14.9062 4.8125 14.9062L11.1875 14.9062Z" clip-rule="evenodd" fill="#666666" fill-opacity="1.000000" fill-rule="evenodd"/>
	<path id="Shape" d="M3.75 8C3.75 5.65283 5.65295 3.75 8 3.75C10.347 3.75 12.25 5.65283 12.25 8C12.25 10.3472 10.347 12.25 8 12.25C5.65295 12.25 3.75 10.3472 3.75 8ZM5.34375 8C5.34375 9.46411 6.53589 10.6562 8 10.6562C9.46411 10.6562 10.6562 9.46411 10.6562 8C10.6562 6.53491 9.46411 5.34375 8 5.34375C6.53589 5.34375 5.34375 6.53491 5.34375 8Z" clip-rule="evenodd" fill="#666666" fill-opacity="1.000000" fill-rule="evenodd"/>
	<path id="Oval" d="M12.6 4.45C13.19 4.45 13.66 3.98 13.66 3.39C13.66 2.8 13.19 2.33 12.6 2.33C12.01 2.33 11.54 2.8 11.54 3.39C11.54 3.98 12.01 4.45 12.6 4.45Z" fill="#666666" fill-opacity="1.000000" fill-rule="nonzero"/>
</svg>
