<svg width="13.000000" height="16.000000" viewBox="0 0 13 16" fill="none" xmlns="http://www.w3.org/2000/svg" xmlns:xlink="http://www.w3.org/1999/xlink">
	<defs/>
	<path id="XMLID_799_" d="M9.8 0.8C8.75 -0.23 7.29 -0.8 5.7 -0.8C3.27 -0.8 1.77 0.22 0.94 1.07C-0.08 2.11 -0.66 3.5 -0.66 4.88C-0.66 6.61 0.05 7.94 1.24 8.43C1.32 8.47 1.4 8.48 1.48 8.48C1.73 8.48 1.93 8.31 2 8.05C2.04 7.89 2.14 7.51 2.18 7.35C2.26 7.02 2.19 6.87 2 6.64C1.66 6.23 1.5 5.73 1.5 5.1C1.5 3.2 2.89 1.19 5.46 1.19C7.51 1.19 8.78 2.37 8.78 4.27C8.78 5.46 8.52 6.57 8.06 7.39C7.74 7.96 7.18 8.63 6.31 8.63C5.94 8.63 5.6 8.48 5.39 8.21C5.19 7.95 5.12 7.62 5.2 7.27C5.29 6.88 5.42 6.47 5.54 6.07C5.76 5.35 5.96 4.67 5.96 4.13C5.96 3.2 5.4 2.57 4.56 2.57C3.5 2.57 2.66 3.67 2.66 5.07C2.66 5.76 2.84 6.27 2.93 6.47C2.79 7.05 2 10.48 1.84 11.12C1.76 11.5 1.23 14.48 2.1 14.72C3.08 14.99 3.96 12.09 4.05 11.76C4.12 11.49 4.37 10.48 4.52 9.86C5 10.32 5.76 10.64 6.5 10.64C7.9 10.64 9.15 10 10.03 8.84C10.89 7.72 11.36 6.15 11.36 4.43C11.36 3.09 10.8 1.76 9.8 0.8Z" fill="#666666" fill-opacity="1.000000" fill-rule="nonzero"/>
</svg>
