<svg width="15.000000" height="13.000000" viewBox="0 0 15 13" fill="none" xmlns="http://www.w3.org/2000/svg" xmlns:xlink="http://www.w3.org/1999/xlink">
	<defs/>
	<path id="Path Copy" d="M14.79 1.13C14.21 1.39 13.6 1.56 12.95 1.64C13.61 1.24 14.12 0.61 14.36 -0.14C13.74 0.22 13.05 0.49 12.33 0.64C11.74 0.01 10.91 -0.38 9.99 -0.38C8.23 -0.38 6.79 1.06 6.79 2.84C6.79 3.09 6.82 3.34 6.88 3.57C4.22 3.44 1.87 2.16 0.29 0.21C0.01 0.68 -0.15 1.24 -0.15 1.83C-0.15 2.94 0.42 3.93 1.28 4.51C0.75 4.49 0.26 4.35 -0.17 4.1C-0.17 4.12 -0.17 4.13 -0.17 4.14C-0.17 5.7 0.93 7 2.39 7.3C2.13 7.37 1.84 7.41 1.55 7.41C1.35 7.41 1.15 7.39 0.95 7.36C1.36 8.63 2.54 9.56 3.94 9.59C2.84 10.45 1.46 10.97 -0.03 10.97C-0.29 10.97 -0.55 10.95 -0.8 10.92C0.62 11.84 2.3 12.37 4.1 12.37C9.98 12.37 13.2 7.47 13.2 3.21C13.2 3.07 13.2 2.93 13.19 2.8C13.82 2.34 14.36 1.77 14.79 1.13Z" fill="#FFFFFF" fill-opacity="1.000000" fill-rule="nonzero"/>
</svg>
