<svg width="19.000000" height="11.000000" viewBox="0 0 19 11" fill="none" xmlns="http://www.w3.org/2000/svg" xmlns:xlink="http://www.w3.org/1999/xlink">
	<defs/>
	<path id="Shape Copy 2" d="M7.22516 4.39917C7.22516 4.39917 8.96521 4.2749 8.96521 2.2876C8.96521 0.305664 7.54199 -0.666504 5.73517 -0.666504L-0.208252 -0.666504L-0.208252 10.4314L5.73462 10.4314C5.73462 10.4314 9.36511 10.5396 9.36511 7.15332C9.36536 7.15332 9.52106 4.39917 7.22516 4.39917ZM11.7446 1.35352L11.7446 -0.0131836L16.4592 -0.0131836L16.4592 1.35352L11.7446 1.35352ZM5.73492 1.30444L2.41052 1.30444L2.41052 3.7832L5.52917 3.7832C6.06854 3.7832 6.54114 3.61572 6.54114 2.46021C6.54114 1.30444 5.73492 1.30444 5.73492 1.30444ZM14.2019 2.15796C9.82117 2.15796 9.81549 6.39722 9.81549 6.41895C9.81549 6.41895 9.51538 10.6638 14.2019 10.6638C14.2019 10.6638 18.1103 10.8796 18.1103 7.70972L16.1034 7.70972C16.1034 7.70972 16.1699 8.90308 14.2687 8.90308C14.2687 8.90308 12.2618 9.03271 12.2618 6.9751L18.1771 6.9751C18.1771 6.9751 18.8276 2.15796 14.2019 2.15796ZM14.2465 3.7832C12.484 3.7832 12.2393 5.48975 12.2393 5.48975L15.9866 5.48975C15.9866 5.48975 16.0144 3.7832 14.2465 3.7832ZM5.56836 8.46021L2.41052 8.46021L2.41052 5.48975L5.73492 5.48975C5.73492 5.48975 6.94153 5.479 6.93585 7.01807C6.93585 8.31445 6.04095 8.44946 5.56836 8.46021Z" clip-rule="evenodd" fill="#666666" fill-opacity="1.000000" fill-rule="evenodd"/>
</svg>
